<?xml version="1.0" encoding="UTF-8" standalone="no"?>
<!DOCTYPE svg PUBLIC "-//W3C//DTD SVG 1.1//EN" "http://www.w3.org/Graphics/SVG/1.1/DTD/svg11.dtd">
<svg width="100%" height="100%" viewBox="0 0 1080 1080" version="1.1" xmlns="http://www.w3.org/2000/svg" xmlns:xlink="http://www.w3.org/1999/xlink" xml:space="preserve" xmlns:serif="http://www.serif.com/" style="fill-rule:evenodd;clip-rule:evenodd;stroke-linecap:round;stroke-linejoin:round;stroke-miterlimit:1.5;">
    <g id="Disc" transform="matrix(1.045,0,0,1.045,-24.3,-24.3)">
        <g transform="matrix(1.49477,0,0,1.54083,-460.747,-431.495)">
            <ellipse cx="669.5" cy="630.5" rx="334.5" ry="324.5" style="fill:url(#_Radial1);stroke:black;stroke-width:5.04px;"/>
        </g>
        <g transform="matrix(1.5,0,0,1.5,-312,-241.5)">
            <circle cx="568" cy="521" r="100" style="fill:white;stroke:black;stroke-width:5.1px;"/>
        </g>
        <g transform="matrix(1,0,0,1,13,9)">
            <circle cx="527" cy="531" r="30" style="stroke:black;stroke-width:7.66px;"/>
        </g>
        <g transform="matrix(-1,-0.000404367,0.000404367,-1,1099.87,1074.13)">
            <path d="M459,193C324.302,232.921 240.771,319.712 208,453" style="fill:none;stroke:white;stroke-width:18.18px;"/>
        </g>
        <g transform="matrix(-0.617361,-0.00024964,0.000241125,-0.596303,934.7,901.633)">
            <path d="M459,193C324.302,232.921 240.771,319.712 208,453" style="fill:none;stroke:white;stroke-width:29.96px;"/>
        </g>
        <g transform="matrix(-1.37904,-0.00055764,0.000539614,-1.33447,1257.24,1217.65)">
            <path d="M459,193C324.302,232.921 240.771,319.712 208,453" style="fill:none;stroke:white;stroke-width:13.4px;"/>
        </g>
        <g transform="matrix(1,0.000238122,-0.000238122,1,0.082813,0.886122)">
            <path d="M459,193C324.302,232.921 240.771,319.712 208,453" style="fill:none;stroke:white;stroke-width:18.18px;"/>
        </g>
        <g transform="matrix(0.617361,0.000147007,-0.000141993,0.596303,174.153,173.384)">
            <path d="M459,193C324.302,232.921 240.771,319.712 208,453" style="fill:none;stroke:white;stroke-width:29.96px;"/>
        </g>
        <g transform="matrix(1.37905,0.000328382,-0.000317767,1.33447,-157.309,-142.604)">
            <path d="M459,193C324.302,232.921 240.771,319.712 208,453" style="fill:none;stroke:white;stroke-width:13.4px;"/>
        </g>
    </g>
    <defs>
        <radialGradient id="_Radial1" cx="0" cy="0" r="1" gradientUnits="userSpaceOnUse" gradientTransform="matrix(189.542,267.344,-275.583,183.875,669.5,630.5)"><stop offset="0" style="stop-color:rgb(163,207,255);stop-opacity:1"/><stop offset="1" style="stop-color:rgb(0,123,255);stop-opacity:1"/></radialGradient>
    </defs>
</svg>
